<mxfile host="app.diagrams.net" modified="2022-02-23T06:22:03.788Z" agent="5.0 (Windows NT 10.0; Win64; x64) AppleWebKit/537.36 (KHTML, like Gecko) Chrome/98.0.4758.102 Safari/537.36" etag="K7Cn_Q74jQ5jRmCm8x57" version="16.6.2" type="github">
  <diagram id="zZjekgeKaKMXZWGep_Za" name="Page-1">
    <mxGraphModel dx="3988" dy="2150" grid="1" gridSize="10" guides="1" tooltips="1" connect="1" arrows="1" fold="1" page="1" pageScale="1" pageWidth="827" pageHeight="1169" math="0" shadow="0">
      <root>
        <mxCell id="0" />
        <mxCell id="1" parent="0" />
        <mxCell id="N_R_tzAdEN0QScIxKXOi-19" style="edgeStyle=orthogonalEdgeStyle;rounded=0;orthogonalLoop=1;jettySize=auto;html=1;entryX=0;entryY=0.615;entryDx=0;entryDy=0;entryPerimeter=0;endArrow=open;endFill=0;endSize=10;" parent="1" source="N_R_tzAdEN0QScIxKXOi-2" target="N_R_tzAdEN0QScIxKXOi-18" edge="1">
          <mxGeometry relative="1" as="geometry">
            <Array as="points">
              <mxPoint x="140" y="-111" />
            </Array>
          </mxGeometry>
        </mxCell>
        <mxCell id="N_R_tzAdEN0QScIxKXOi-40" style="edgeStyle=orthogonalEdgeStyle;rounded=0;orthogonalLoop=1;jettySize=auto;html=1;endArrow=open;endFill=0;endSize=10;" parent="1" source="N_R_tzAdEN0QScIxKXOi-2" target="N_R_tzAdEN0QScIxKXOi-38" edge="1">
          <mxGeometry relative="1" as="geometry">
            <Array as="points">
              <mxPoint x="90" y="-280" />
            </Array>
          </mxGeometry>
        </mxCell>
        <mxCell id="bZAxoYcyqO5xmqDFGb2h-75" style="edgeStyle=orthogonalEdgeStyle;rounded=0;jumpSize=11;orthogonalLoop=1;jettySize=auto;html=1;fontSize=17;endArrow=open;endFill=0;endSize=10;targetPerimeterSpacing=0;" edge="1" parent="1" source="bZAxoYcyqO5xmqDFGb2h-79" target="N_R_tzAdEN0QScIxKXOi-2">
          <mxGeometry relative="1" as="geometry">
            <mxPoint x="10" y="-330" as="targetPoint" />
            <Array as="points">
              <mxPoint x="-20" y="30" />
            </Array>
          </mxGeometry>
        </mxCell>
        <mxCell id="bZAxoYcyqO5xmqDFGb2h-88" style="edgeStyle=orthogonalEdgeStyle;rounded=0;jumpSize=11;orthogonalLoop=1;jettySize=auto;html=1;fontSize=17;endArrow=open;endFill=0;endSize=10;targetPerimeterSpacing=0;" edge="1" parent="1" source="N_R_tzAdEN0QScIxKXOi-2" target="bZAxoYcyqO5xmqDFGb2h-87">
          <mxGeometry relative="1" as="geometry">
            <Array as="points">
              <mxPoint x="210" y="110" />
              <mxPoint x="210" y="390" />
            </Array>
          </mxGeometry>
        </mxCell>
        <mxCell id="N_R_tzAdEN0QScIxKXOi-2" value="Conductor" style="shape=umlActor;verticalLabelPosition=bottom;verticalAlign=top;html=1;outlineConnect=0;" parent="1" vertex="1">
          <mxGeometry x="70" y="30" width="80" height="160" as="geometry" />
        </mxCell>
        <mxCell id="N_R_tzAdEN0QScIxKXOi-16" style="edgeStyle=orthogonalEdgeStyle;rounded=0;orthogonalLoop=1;jettySize=auto;html=1;entryX=1;entryY=0.5;entryDx=0;entryDy=0;exitX=0.25;exitY=0.1;exitDx=0;exitDy=0;exitPerimeter=0;endArrow=open;endFill=0;endSize=10;" parent="1" source="N_R_tzAdEN0QScIxKXOi-3" target="N_R_tzAdEN0QScIxKXOi-14" edge="1">
          <mxGeometry relative="1" as="geometry">
            <Array as="points">
              <mxPoint x="1070" y="74" />
              <mxPoint x="1070" y="-240" />
            </Array>
          </mxGeometry>
        </mxCell>
        <mxCell id="N_R_tzAdEN0QScIxKXOi-42" style="edgeStyle=orthogonalEdgeStyle;rounded=0;orthogonalLoop=1;jettySize=auto;html=1;exitX=0.5;exitY=0;exitDx=0;exitDy=0;exitPerimeter=0;entryX=1;entryY=0.5;entryDx=0;entryDy=0;targetPerimeterSpacing=0;endSize=10;endArrow=open;endFill=0;" parent="1" source="N_R_tzAdEN0QScIxKXOi-3" target="N_R_tzAdEN0QScIxKXOi-39" edge="1">
          <mxGeometry relative="1" as="geometry">
            <Array as="points">
              <mxPoint x="1010" y="60" />
              <mxPoint x="1010" y="-90" />
            </Array>
          </mxGeometry>
        </mxCell>
        <mxCell id="bZAxoYcyqO5xmqDFGb2h-76" style="edgeStyle=orthogonalEdgeStyle;rounded=0;jumpSize=11;orthogonalLoop=1;jettySize=auto;html=1;fontSize=17;endArrow=open;endFill=0;endSize=10;targetPerimeterSpacing=0;" edge="1" parent="1" source="bZAxoYcyqO5xmqDFGb2h-73" target="N_R_tzAdEN0QScIxKXOi-3">
          <mxGeometry relative="1" as="geometry">
            <Array as="points">
              <mxPoint x="1190" y="-480" />
              <mxPoint x="1190" y="130" />
            </Array>
          </mxGeometry>
        </mxCell>
        <mxCell id="N_R_tzAdEN0QScIxKXOi-3" value="Pasajero" style="shape=umlActor;verticalLabelPosition=bottom;verticalAlign=top;html=1;outlineConnect=0;" parent="1" vertex="1">
          <mxGeometry x="1040" y="60" width="70" height="140" as="geometry" />
        </mxCell>
        <mxCell id="N_R_tzAdEN0QScIxKXOi-33" style="edgeStyle=orthogonalEdgeStyle;rounded=0;orthogonalLoop=1;jettySize=auto;html=1;endArrow=open;endFill=0;endSize=11;" parent="1" source="N_R_tzAdEN0QScIxKXOi-4" target="N_R_tzAdEN0QScIxKXOi-32" edge="1">
          <mxGeometry relative="1" as="geometry">
            <Array as="points">
              <mxPoint x="210" y="840" />
              <mxPoint x="210" y="840" />
            </Array>
          </mxGeometry>
        </mxCell>
        <mxCell id="N_R_tzAdEN0QScIxKXOi-4" value="Empresa" style="shape=umlActor;verticalLabelPosition=bottom;verticalAlign=top;html=1;outlineConnect=0;" parent="1" vertex="1">
          <mxGeometry x="-80" y="720" width="70" height="140" as="geometry" />
        </mxCell>
        <mxCell id="bZAxoYcyqO5xmqDFGb2h-8" style="edgeStyle=orthogonalEdgeStyle;rounded=0;orthogonalLoop=1;jettySize=auto;html=1;dashed=1;endArrow=block;endFill=0;endSize=11;" edge="1" parent="1" source="N_R_tzAdEN0QScIxKXOi-14" target="N_R_tzAdEN0QScIxKXOi-18">
          <mxGeometry relative="1" as="geometry">
            <Array as="points">
              <mxPoint x="785" y="-180" />
              <mxPoint x="240" y="-180" />
            </Array>
          </mxGeometry>
        </mxCell>
        <mxCell id="bZAxoYcyqO5xmqDFGb2h-9" value="&amp;lt;&amp;lt;extends&amp;gt;&amp;gt;" style="edgeLabel;html=1;align=center;verticalAlign=middle;resizable=0;points=[];" vertex="1" connectable="0" parent="bZAxoYcyqO5xmqDFGb2h-8">
          <mxGeometry x="-0.1113" y="2" relative="1" as="geometry">
            <mxPoint x="8" y="-2" as="offset" />
          </mxGeometry>
        </mxCell>
        <mxCell id="N_R_tzAdEN0QScIxKXOi-14" value="Pedir un viaje&amp;nbsp;" style="ellipse;whiteSpace=wrap;html=1;fillColor=#FFFFFF;" parent="1" vertex="1">
          <mxGeometry x="730" y="-280" width="110" height="80" as="geometry" />
        </mxCell>
        <mxCell id="N_R_tzAdEN0QScIxKXOi-15" value="&lt;blockquote style=&quot;margin: 0 0 0 40px ; border: none ; padding: 0px&quot;&gt;&lt;blockquote style=&quot;margin: 0 0 0 40px ; border: none ; padding: 0px&quot;&gt;&lt;blockquote style=&quot;margin: 0 0 0 40px ; border: none ; padding: 0px&quot;&gt;&lt;b style=&quot;font-size: 18px ; text-align: center&quot;&gt;Viaje&lt;/b&gt;&lt;br&gt;&lt;blockquote style=&quot;margin: 0 0 0 40px ; border: none ; padding: 0px&quot;&gt;&lt;div style=&quot;text-align: center ; font-size: 18px&quot;&gt;&lt;div style=&quot;text-align: center ; font-size: 18px&quot;&gt;&lt;b&gt;&lt;br&gt;&lt;/b&gt;&lt;/div&gt;&lt;div style=&quot;text-align: center ; font-size: 18px&quot;&gt;&lt;b&gt;&lt;br&gt;&lt;/b&gt;&lt;/div&gt;&lt;/div&gt;&lt;/blockquote&gt;&lt;/blockquote&gt;&lt;/blockquote&gt;&lt;/blockquote&gt;&lt;div style=&quot;text-align: center ; font-size: 18px&quot;&gt;&lt;blockquote style=&quot;margin: 0 0 0 40px ; border: none ; padding: 0px&quot;&gt;&lt;div style=&quot;text-align: center ; font-size: 18px&quot;&gt;&lt;b&gt;&lt;br&gt;&lt;/b&gt;&lt;/div&gt;&lt;div style=&quot;text-align: center ; font-size: 18px&quot;&gt;&lt;b&gt;&lt;br&gt;&lt;/b&gt;&lt;/div&gt;&lt;div style=&quot;text-align: center ; font-size: 18px&quot;&gt;&lt;b&gt;&lt;br&gt;&lt;/b&gt;&lt;/div&gt;&lt;div style=&quot;text-align: center ; font-size: 18px&quot;&gt;&lt;b&gt;&lt;br&gt;&lt;/b&gt;&lt;/div&gt;&lt;div style=&quot;text-align: center ; font-size: 18px&quot;&gt;&lt;b&gt;&lt;br&gt;&lt;/b&gt;&lt;/div&gt;&lt;div style=&quot;text-align: center ; font-size: 18px&quot;&gt;&lt;b&gt;&lt;br&gt;&lt;/b&gt;&lt;/div&gt;&lt;div style=&quot;text-align: center ; font-size: 18px&quot;&gt;&lt;b&gt;&lt;br&gt;&lt;/b&gt;&lt;/div&gt;&lt;div style=&quot;text-align: center ; font-size: 18px&quot;&gt;&lt;b&gt;&lt;br&gt;&lt;/b&gt;&lt;/div&gt;&lt;div style=&quot;text-align: center ; font-size: 18px&quot;&gt;&lt;b&gt;&lt;br&gt;&lt;/b&gt;&lt;/div&gt;&lt;div style=&quot;text-align: center ; font-size: 18px&quot;&gt;&lt;b&gt;&lt;br&gt;&lt;/b&gt;&lt;/div&gt;&lt;div style=&quot;text-align: center ; font-size: 18px&quot;&gt;&lt;b&gt;&lt;br&gt;&lt;/b&gt;&lt;/div&gt;&lt;div style=&quot;text-align: center ; font-size: 18px&quot;&gt;&lt;b&gt;&lt;br&gt;&lt;/b&gt;&lt;/div&gt;&lt;div style=&quot;text-align: center ; font-size: 18px&quot;&gt;&lt;b&gt;&lt;br&gt;&lt;/b&gt;&lt;/div&gt;&lt;div style=&quot;text-align: center ; font-size: 18px&quot;&gt;&lt;b&gt;&lt;br&gt;&lt;/b&gt;&lt;/div&gt;&lt;div style=&quot;text-align: center ; font-size: 18px&quot;&gt;&lt;b&gt;&lt;br&gt;&lt;/b&gt;&lt;/div&gt;&lt;div style=&quot;text-align: center ; font-size: 18px&quot;&gt;&lt;b&gt;&lt;br&gt;&lt;/b&gt;&lt;/div&gt;&lt;div style=&quot;text-align: center ; font-size: 18px&quot;&gt;&lt;br&gt;&lt;/div&gt;&lt;/blockquote&gt;&lt;/div&gt;&lt;div style=&quot;text-align: center&quot;&gt;&lt;/div&gt;" style="rounded=0;whiteSpace=wrap;html=1;fillColor=#FFFFFF;align=left;" parent="1" vertex="1">
          <mxGeometry x="380" y="-90" width="340" height="450" as="geometry" />
        </mxCell>
        <mxCell id="N_R_tzAdEN0QScIxKXOi-20" style="edgeStyle=orthogonalEdgeStyle;rounded=0;orthogonalLoop=1;jettySize=auto;html=1;entryX=0;entryY=0.5;entryDx=0;entryDy=0;endSize=11;endArrow=open;endFill=0;" parent="1" source="N_R_tzAdEN0QScIxKXOi-18" target="N_R_tzAdEN0QScIxKXOi-15" edge="1">
          <mxGeometry relative="1" as="geometry" />
        </mxCell>
        <mxCell id="bZAxoYcyqO5xmqDFGb2h-17" style="edgeStyle=orthogonalEdgeStyle;rounded=0;orthogonalLoop=1;jettySize=auto;html=1;dashed=1;endArrow=block;endFill=0;endSize=10;" edge="1" parent="1" source="N_R_tzAdEN0QScIxKXOi-18" target="bZAxoYcyqO5xmqDFGb2h-13">
          <mxGeometry relative="1" as="geometry">
            <mxPoint x="240" y="-140" as="sourcePoint" />
            <Array as="points" />
          </mxGeometry>
        </mxCell>
        <mxCell id="bZAxoYcyqO5xmqDFGb2h-19" value="&amp;lt;&amp;lt;extends&amp;gt;&amp;gt;" style="edgeLabel;html=1;align=center;verticalAlign=middle;resizable=0;points=[];" vertex="1" connectable="0" parent="bZAxoYcyqO5xmqDFGb2h-17">
          <mxGeometry x="-0.5387" y="3" relative="1" as="geometry">
            <mxPoint x="-3" y="21" as="offset" />
          </mxGeometry>
        </mxCell>
        <mxCell id="N_R_tzAdEN0QScIxKXOi-18" value="Aceptar un viaje&amp;nbsp;" style="ellipse;whiteSpace=wrap;html=1;fillColor=#FFFFFF;" parent="1" vertex="1">
          <mxGeometry x="190" y="-160" width="120" height="80" as="geometry" />
        </mxCell>
        <mxCell id="N_R_tzAdEN0QScIxKXOi-24" style="edgeStyle=orthogonalEdgeStyle;rounded=0;orthogonalLoop=1;jettySize=auto;html=1;endSize=10;endArrow=open;endFill=0;" parent="1" source="N_R_tzAdEN0QScIxKXOi-21" target="N_R_tzAdEN0QScIxKXOi-22" edge="1">
          <mxGeometry relative="1" as="geometry">
            <Array as="points">
              <mxPoint x="520" y="500" />
              <mxPoint x="520" y="498" />
            </Array>
          </mxGeometry>
        </mxCell>
        <mxCell id="N_R_tzAdEN0QScIxKXOi-21" value="Pagar el viaje en efectivo" style="ellipse;whiteSpace=wrap;html=1;fillColor=#FFFFFF;" parent="1" vertex="1">
          <mxGeometry x="580" y="470" width="120" height="80" as="geometry" />
        </mxCell>
        <mxCell id="N_R_tzAdEN0QScIxKXOi-25" style="edgeStyle=orthogonalEdgeStyle;rounded=0;orthogonalLoop=1;jettySize=auto;html=1;endSize=10;endArrow=open;endFill=0;" parent="1" source="N_R_tzAdEN0QScIxKXOi-22" target="N_R_tzAdEN0QScIxKXOi-2" edge="1">
          <mxGeometry relative="1" as="geometry">
            <Array as="points">
              <mxPoint x="350" y="450" />
              <mxPoint x="150" y="450" />
            </Array>
          </mxGeometry>
        </mxCell>
        <mxCell id="N_R_tzAdEN0QScIxKXOi-22" value="&lt;font style=&quot;font-size: 14px&quot;&gt;&lt;b&gt;Pago del viaje en efectivo&lt;br&gt;&lt;br&gt;&lt;br&gt;&lt;span style=&quot;color: rgba(0 , 0 , 0 , 0) ; font-family: monospace&quot;&gt;%3CmxGraphModel%3E%3Croot%3E%3CmxCell%20id%3D%220%22%2F%3E%3CmxCell%20id%3D%221%22%20parent%3D%220%22%2F%3E%3CmxCell%20id%3D%222%22%20value%3D%22Actualizar%26lt%3Bbr%26gt%3BCalificacion%20promedio%26lt%3Bbr%26gt%3B%22%20style%3D%22ellipse%3BwhiteSpace%3Dwrap%3Bhtml%3D1%3BfillColor%3D%23FFFFFF%3B%22%20vertex%3D%221%22%20parent%3D%221%22%3E%3CmxGeometry%20x%3D%22402.5%22%20y%3D%22370%22%20width%3D%22123%22%20height%3D%2290%22%20as%3D%22geometry%22%2F%3E%3C%2FmxCell%3E%3C%2Froot%3E%3C%2FmxGraphModel%3E&lt;/span&gt;&lt;/b&gt;&lt;/font&gt;" style="rounded=0;whiteSpace=wrap;html=1;fillColor=#FFFFFF;" parent="1" vertex="1">
          <mxGeometry x="380" y="470" width="180" height="110" as="geometry" />
        </mxCell>
        <mxCell id="N_R_tzAdEN0QScIxKXOi-26" style="edgeStyle=orthogonalEdgeStyle;rounded=0;orthogonalLoop=1;jettySize=auto;html=1;endArrow=open;endFill=0;endSize=10;" parent="1" source="N_R_tzAdEN0QScIxKXOi-27" target="N_R_tzAdEN0QScIxKXOi-28" edge="1">
          <mxGeometry relative="1" as="geometry">
            <Array as="points">
              <mxPoint x="650" y="1150" />
              <mxPoint x="650" y="1150" />
            </Array>
          </mxGeometry>
        </mxCell>
        <mxCell id="N_R_tzAdEN0QScIxKXOi-27" value="Pagar el viaje con la tarjeta del pasajero" style="ellipse;whiteSpace=wrap;html=1;fillColor=#FFFFFF;" parent="1" vertex="1">
          <mxGeometry x="830" y="1110" width="120" height="80" as="geometry" />
        </mxCell>
        <mxCell id="N_R_tzAdEN0QScIxKXOi-29" style="edgeStyle=orthogonalEdgeStyle;rounded=0;orthogonalLoop=1;jettySize=auto;html=1;endArrow=open;endFill=0;endSize=10;" parent="1" source="N_R_tzAdEN0QScIxKXOi-28" target="N_R_tzAdEN0QScIxKXOi-4" edge="1">
          <mxGeometry relative="1" as="geometry">
            <Array as="points">
              <mxPoint x="-10" y="1170" />
            </Array>
            <mxPoint x="-40" y="900" as="targetPoint" />
          </mxGeometry>
        </mxCell>
        <mxCell id="N_R_tzAdEN0QScIxKXOi-28" value="&lt;b&gt;&lt;font style=&quot;font-size: 14px&quot;&gt;Pago del viaje con tarjeta&lt;/font&gt;&lt;/b&gt;&lt;br&gt;&lt;br&gt;&lt;span style=&quot;color: rgba(0 , 0 , 0 , 0) ; font-family: monospace ; font-size: 0px&quot;&gt;%3CmxGraphModel%3E%3Croot%3E%3CmxCell%20id%3D%220%22%2F%3E%3CmxCell%20id%3D%221%22%20parent%3D%220%22%2F%3E%3CmxCell%20id%3D%222%22%20value%3D%22Dar%20Dinero%22%20style%3D%22ellipse%3BwhiteSpace%3Dwrap%3Bhtml%3D1%3BfillColor%3D%23FFFFFF%3B%22%20vertex%3D%221%22%20parent%3D%221%22%3E%3CmxGeometry%20x%3D%22386%22%20y%3D%22525%22%20width%3D%2288%22%20height%3D%2255%22%20as%3D%22geometry%22%2F%3E%3C%2FmxCell%3E%3C%2Froot%3E%3C%2FmxGraphModel%3E&lt;/span&gt;&lt;span style=&quot;color: rgba(0 , 0 , 0 , 0) ; font-family: monospace ; font-size: 0px&quot;&gt;%3CmxGraphModel%3E%3Croot%3E%3CmxCell%20id%3D%220%22%2F%3E%3CmxCell%20id%3D%221%22%20parent%3D%220%22%2F%3E%3CmxCell%20id%3D%222%22%20value%3D%22Dar%20Dinero%22%20style%3D%22ellipse%3BwhiteSpace%3Dwrap%3Bhtml%3D1%3BfillColor%3D%23FFFFFF%3B%22%20vertex%3D%221%22%20parent%3D%221%22%3E%3CmxGeometry%20x%3D%22386%22%20y%3D%22525%22%20width%3D%2288%22%20height%3D%2255%22%20as%3D%22geometry%22%2F%3E%3C%2FmxCell%3E%3C%2Froot%3E%3C%2FmxGraphModel%3E&lt;br&gt;&lt;/span&gt;&lt;br&gt;&lt;br&gt;&lt;br&gt;&lt;br&gt;&lt;br&gt;&lt;br&gt;" style="rounded=0;whiteSpace=wrap;html=1;fillColor=#FFFFFF;" parent="1" vertex="1">
          <mxGeometry x="470" y="1130" width="180" height="240" as="geometry" />
        </mxCell>
        <mxCell id="N_R_tzAdEN0QScIxKXOi-35" style="edgeStyle=orthogonalEdgeStyle;rounded=0;orthogonalLoop=1;jettySize=auto;html=1;entryX=0;entryY=0.5;entryDx=0;entryDy=0;endArrow=open;endFill=0;endSize=11;" parent="1" source="N_R_tzAdEN0QScIxKXOi-32" target="N_R_tzAdEN0QScIxKXOi-34" edge="1">
          <mxGeometry relative="1" as="geometry" />
        </mxCell>
        <mxCell id="N_R_tzAdEN0QScIxKXOi-32" value="Pagar a los conductores al final del mes" style="ellipse;whiteSpace=wrap;html=1;fillColor=#FFFFFF;" parent="1" vertex="1">
          <mxGeometry x="200" y="767.5" width="120" height="80" as="geometry" />
        </mxCell>
        <mxCell id="N_R_tzAdEN0QScIxKXOi-36" style="edgeStyle=orthogonalEdgeStyle;rounded=0;orthogonalLoop=1;jettySize=auto;html=1;endSize=10;endArrow=open;endFill=0;" parent="1" source="N_R_tzAdEN0QScIxKXOi-34" target="N_R_tzAdEN0QScIxKXOi-2" edge="1">
          <mxGeometry relative="1" as="geometry">
            <Array as="points">
              <mxPoint x="690" y="610" />
              <mxPoint x="250" y="610" />
              <mxPoint x="250" y="490" />
              <mxPoint x="130" y="490" />
            </Array>
            <mxPoint x="170" y="495" as="targetPoint" />
          </mxGeometry>
        </mxCell>
        <mxCell id="N_R_tzAdEN0QScIxKXOi-34" value="&lt;b&gt;&lt;font style=&quot;font-size: 17px&quot;&gt;Pago del conductor&lt;br&gt;&lt;br&gt;&lt;br&gt;&lt;br&gt;&lt;br&gt;&lt;br&gt;&lt;br&gt;&lt;br&gt;&lt;br&gt;&lt;br&gt;&lt;br&gt;&lt;br&gt;&lt;/font&gt;&lt;/b&gt;" style="rounded=0;whiteSpace=wrap;html=1;fillColor=#FFFFFF;" parent="1" vertex="1">
          <mxGeometry x="380" y="695" width="290" height="295" as="geometry" />
        </mxCell>
        <mxCell id="N_R_tzAdEN0QScIxKXOi-38" value="Dar una nota al Pasajero" style="ellipse;whiteSpace=wrap;html=1;fillColor=#FFFFFF;" parent="1" vertex="1">
          <mxGeometry x="180" y="-320" width="120" height="80" as="geometry" />
        </mxCell>
        <mxCell id="N_R_tzAdEN0QScIxKXOi-39" value="Reportar un problema en el viaje" style="ellipse;whiteSpace=wrap;html=1;fillColor=#FFFFFF;" parent="1" vertex="1">
          <mxGeometry x="830" y="-130" width="125" height="80" as="geometry" />
        </mxCell>
        <mxCell id="bZAxoYcyqO5xmqDFGb2h-1" style="edgeStyle=orthogonalEdgeStyle;rounded=0;orthogonalLoop=1;jettySize=auto;html=1;endArrow=none;endFill=0;" edge="1" parent="1" source="N_R_tzAdEN0QScIxKXOi-4" target="bZAxoYcyqO5xmqDFGb2h-2">
          <mxGeometry relative="1" as="geometry">
            <mxPoint x="100" y="514.2928563989644" as="targetPoint" />
            <Array as="points">
              <mxPoint x="-180" y="795" />
            </Array>
            <mxPoint x="80" y="675" as="sourcePoint" />
          </mxGeometry>
        </mxCell>
        <mxCell id="bZAxoYcyqO5xmqDFGb2h-63" style="edgeStyle=orthogonalEdgeStyle;rounded=0;orthogonalLoop=1;jettySize=auto;html=1;fontSize=18;endArrow=open;endFill=0;endSize=11;" edge="1" parent="1" source="bZAxoYcyqO5xmqDFGb2h-2" target="N_R_tzAdEN0QScIxKXOi-2">
          <mxGeometry relative="1" as="geometry">
            <Array as="points">
              <mxPoint x="-180" y="95" />
            </Array>
          </mxGeometry>
        </mxCell>
        <mxCell id="bZAxoYcyqO5xmqDFGb2h-2" value="Registrar&lt;br&gt;Conductor" style="ellipse;whiteSpace=wrap;html=1;" vertex="1" parent="1">
          <mxGeometry x="-230" y="232.5" width="100" height="70" as="geometry" />
        </mxCell>
        <mxCell id="bZAxoYcyqO5xmqDFGb2h-20" value="&amp;lt;&amp;lt;extends&amp;gt;&amp;gt;" style="edgeStyle=orthogonalEdgeStyle;rounded=0;orthogonalLoop=1;jettySize=auto;html=1;entryX=1;entryY=0.5;entryDx=0;entryDy=0;dashed=1;endArrow=block;endFill=0;endSize=10;" edge="1" parent="1" source="bZAxoYcyqO5xmqDFGb2h-3" target="bZAxoYcyqO5xmqDFGb2h-27">
          <mxGeometry x="-0.1174" relative="1" as="geometry">
            <Array as="points">
              <mxPoint x="805" y="158" />
            </Array>
            <mxPoint as="offset" />
          </mxGeometry>
        </mxCell>
        <mxCell id="bZAxoYcyqO5xmqDFGb2h-84" style="edgeStyle=orthogonalEdgeStyle;rounded=0;jumpSize=11;orthogonalLoop=1;jettySize=auto;html=1;fontSize=17;endArrow=open;endFill=0;endSize=10;targetPerimeterSpacing=0;" edge="1" parent="1" source="bZAxoYcyqO5xmqDFGb2h-3" target="bZAxoYcyqO5xmqDFGb2h-87">
          <mxGeometry relative="1" as="geometry">
            <Array as="points">
              <mxPoint x="760" y="390" />
            </Array>
          </mxGeometry>
        </mxCell>
        <mxCell id="bZAxoYcyqO5xmqDFGb2h-3" value="Dar una nota al Conductor" style="ellipse;whiteSpace=wrap;html=1;fillColor=#FFFFFF;" vertex="1" parent="1">
          <mxGeometry x="740" y="220" width="110" height="80" as="geometry" />
        </mxCell>
        <mxCell id="bZAxoYcyqO5xmqDFGb2h-4" style="edgeStyle=orthogonalEdgeStyle;rounded=0;orthogonalLoop=1;jettySize=auto;html=1;endArrow=open;endFill=0;endSize=11;" edge="1" parent="1" source="N_R_tzAdEN0QScIxKXOi-3" target="bZAxoYcyqO5xmqDFGb2h-3">
          <mxGeometry relative="1" as="geometry">
            <mxPoint x="699.94" y="199.99666666666695" as="sourcePoint" />
            <mxPoint x="654.9400000000187" y="43.33" as="targetPoint" />
            <Array as="points">
              <mxPoint x="1000" y="120" />
              <mxPoint x="1000" y="240" />
            </Array>
          </mxGeometry>
        </mxCell>
        <mxCell id="bZAxoYcyqO5xmqDFGb2h-10" style="edgeStyle=orthogonalEdgeStyle;rounded=0;orthogonalLoop=1;jettySize=auto;html=1;endArrow=open;endFill=0;" edge="1" parent="1" source="N_R_tzAdEN0QScIxKXOi-2" target="bZAxoYcyqO5xmqDFGb2h-13">
          <mxGeometry relative="1" as="geometry">
            <mxPoint x="79.99882352941216" y="8.240000000000002" as="sourcePoint" />
            <mxPoint x="162" y="-100" as="targetPoint" />
            <Array as="points">
              <mxPoint x="150" y="85" />
              <mxPoint x="150" y="85" />
            </Array>
          </mxGeometry>
        </mxCell>
        <mxCell id="bZAxoYcyqO5xmqDFGb2h-13" value="Terminar Viaje Actual" style="ellipse;whiteSpace=wrap;html=1;fillColor=#FFFFFF;" vertex="1" parent="1">
          <mxGeometry x="200" y="20" width="120" height="80" as="geometry" />
        </mxCell>
        <mxCell id="bZAxoYcyqO5xmqDFGb2h-14" style="edgeStyle=orthogonalEdgeStyle;rounded=0;orthogonalLoop=1;jettySize=auto;html=1;dashed=1;endArrow=block;endFill=0;endSize=10;" edge="1" parent="1" source="N_R_tzAdEN0QScIxKXOi-38" target="bZAxoYcyqO5xmqDFGb2h-27">
          <mxGeometry relative="1" as="geometry">
            <mxPoint x="160" y="-280" as="sourcePoint" />
            <mxPoint x="230" y="-130" as="targetPoint" />
            <Array as="points">
              <mxPoint x="460" y="-240" />
            </Array>
          </mxGeometry>
        </mxCell>
        <mxCell id="bZAxoYcyqO5xmqDFGb2h-15" value="&amp;lt;&amp;lt;extends&amp;gt;&amp;gt;" style="edgeLabel;html=1;align=center;verticalAlign=middle;resizable=0;points=[];" vertex="1" connectable="0" parent="bZAxoYcyqO5xmqDFGb2h-14">
          <mxGeometry x="-0.1113" y="2" relative="1" as="geometry">
            <mxPoint x="3" y="52" as="offset" />
          </mxGeometry>
        </mxCell>
        <mxCell id="bZAxoYcyqO5xmqDFGb2h-18" style="edgeStyle=orthogonalEdgeStyle;rounded=0;orthogonalLoop=1;jettySize=auto;html=1;exitX=0.5;exitY=1;exitDx=0;exitDy=0;dashed=1;endArrow=block;endFill=0;" edge="1" parent="1" source="N_R_tzAdEN0QScIxKXOi-38" target="N_R_tzAdEN0QScIxKXOi-38">
          <mxGeometry relative="1" as="geometry" />
        </mxCell>
        <mxCell id="bZAxoYcyqO5xmqDFGb2h-21" value="Registro en la aplicación" style="ellipse;whiteSpace=wrap;html=1;fillColor=#FFFFFF;" vertex="1" parent="1">
          <mxGeometry x="730" y="-440" width="110" height="80" as="geometry" />
        </mxCell>
        <mxCell id="bZAxoYcyqO5xmqDFGb2h-22" style="edgeStyle=orthogonalEdgeStyle;rounded=0;orthogonalLoop=1;jettySize=auto;html=1;entryX=1;entryY=0.5;entryDx=0;entryDy=0;exitX=0.5;exitY=0;exitDx=0;exitDy=0;exitPerimeter=0;endArrow=open;endFill=0;endSize=11;" edge="1" parent="1" source="N_R_tzAdEN0QScIxKXOi-3" target="bZAxoYcyqO5xmqDFGb2h-21">
          <mxGeometry relative="1" as="geometry">
            <mxPoint x="1057" y="50" as="sourcePoint" />
            <mxPoint x="827" y="-274" as="targetPoint" />
            <Array as="points">
              <mxPoint x="1140" y="60" />
              <mxPoint x="1140" y="-400" />
            </Array>
          </mxGeometry>
        </mxCell>
        <mxCell id="bZAxoYcyqO5xmqDFGb2h-23" value="&amp;lt;&amp;lt;extends&amp;gt;&amp;gt;" style="edgeStyle=orthogonalEdgeStyle;rounded=0;orthogonalLoop=1;jettySize=auto;html=1;endArrow=block;endFill=0;dashed=1;exitX=0.5;exitY=0;exitDx=0;exitDy=0;entryX=0.5;entryY=1;entryDx=0;entryDy=0;endSize=11;" edge="1" parent="1" source="N_R_tzAdEN0QScIxKXOi-14" target="bZAxoYcyqO5xmqDFGb2h-21">
          <mxGeometry x="-0.1795" relative="1" as="geometry">
            <mxPoint x="795" y="-120" as="sourcePoint" />
            <mxPoint x="850" y="-340" as="targetPoint" />
            <Array as="points" />
            <mxPoint as="offset" />
          </mxGeometry>
        </mxCell>
        <mxCell id="bZAxoYcyqO5xmqDFGb2h-27" value="TerminarViaje" style="ellipse;whiteSpace=wrap;html=1;fillColor=#FFFFFF;" vertex="1" parent="1">
          <mxGeometry x="420" y="125" width="100" height="65" as="geometry" />
        </mxCell>
        <mxCell id="bZAxoYcyqO5xmqDFGb2h-30" value="&amp;lt;&amp;lt;extends&amp;gt;&amp;gt;" style="edgeStyle=orthogonalEdgeStyle;rounded=0;orthogonalLoop=1;jettySize=auto;html=1;dashed=1;endArrow=block;endFill=0;exitX=0.5;exitY=1;exitDx=0;exitDy=0;endSize=11;" edge="1" parent="1" source="N_R_tzAdEN0QScIxKXOi-39" target="bZAxoYcyqO5xmqDFGb2h-58">
          <mxGeometry x="-0.0327" relative="1" as="geometry">
            <mxPoint x="652.5699999999999" y="-82" as="sourcePoint" />
            <mxPoint x="359.9964068712164" y="-0.28427124747804555" as="targetPoint" />
            <Array as="points">
              <mxPoint x="893" />
            </Array>
            <mxPoint as="offset" />
          </mxGeometry>
        </mxCell>
        <mxCell id="bZAxoYcyqO5xmqDFGb2h-32" style="edgeStyle=orthogonalEdgeStyle;rounded=0;orthogonalLoop=1;jettySize=auto;html=1;dashed=1;endArrow=block;endFill=0;endSize=11;" edge="1" parent="1" source="bZAxoYcyqO5xmqDFGb2h-27" target="bZAxoYcyqO5xmqDFGb2h-13">
          <mxGeometry relative="1" as="geometry">
            <mxPoint x="434.99999999999" y="137.5" as="sourcePoint" />
            <mxPoint x="300" y="90" as="targetPoint" />
            <Array as="points">
              <mxPoint x="250" y="170" />
            </Array>
          </mxGeometry>
        </mxCell>
        <mxCell id="bZAxoYcyqO5xmqDFGb2h-33" value="&amp;lt;&amp;lt;extends&amp;gt;&amp;gt;" style="edgeLabel;html=1;align=center;verticalAlign=middle;resizable=0;points=[];" vertex="1" connectable="0" parent="bZAxoYcyqO5xmqDFGb2h-32">
          <mxGeometry x="-0.5387" y="3" relative="1" as="geometry">
            <mxPoint x="-50" y="-3" as="offset" />
          </mxGeometry>
        </mxCell>
        <mxCell id="bZAxoYcyqO5xmqDFGb2h-53" value="&amp;lt;&amp;lt;extends&amp;gt;&amp;gt;" style="edgeStyle=orthogonalEdgeStyle;rounded=0;orthogonalLoop=1;jettySize=auto;html=1;entryX=0.5;entryY=1;entryDx=0;entryDy=0;dashed=1;endArrow=block;endFill=0;endSize=11;" edge="1" parent="1" source="bZAxoYcyqO5xmqDFGb2h-37" target="bZAxoYcyqO5xmqDFGb2h-44">
          <mxGeometry relative="1" as="geometry">
            <Array as="points">
              <mxPoint x="970" y="380" />
              <mxPoint x="650" y="380" />
            </Array>
          </mxGeometry>
        </mxCell>
        <mxCell id="bZAxoYcyqO5xmqDFGb2h-37" value="Pagar Viaje" style="ellipse;whiteSpace=wrap;html=1;fillColor=#FFFFFF;" vertex="1" parent="1">
          <mxGeometry x="930" y="490" width="110" height="80" as="geometry" />
        </mxCell>
        <mxCell id="bZAxoYcyqO5xmqDFGb2h-39" style="edgeStyle=orthogonalEdgeStyle;rounded=0;orthogonalLoop=1;jettySize=auto;html=1;endArrow=open;endFill=0;endSize=10;" edge="1" parent="1" source="N_R_tzAdEN0QScIxKXOi-3" target="bZAxoYcyqO5xmqDFGb2h-37">
          <mxGeometry relative="1" as="geometry">
            <mxPoint x="1055" y="350" as="sourcePoint" />
            <mxPoint x="840" y="280" as="targetPoint" />
            <Array as="points">
              <mxPoint x="1080" y="390" />
              <mxPoint x="1180" y="390" />
            </Array>
          </mxGeometry>
        </mxCell>
        <mxCell id="bZAxoYcyqO5xmqDFGb2h-40" value="&amp;lt;&amp;lt;includes&amp;gt;&amp;gt;" style="edgeStyle=orthogonalEdgeStyle;rounded=0;orthogonalLoop=1;jettySize=auto;html=1;entryX=1;entryY=0.5;entryDx=0;entryDy=0;dashed=1;endArrow=block;endFill=0;exitX=0;exitY=0.5;exitDx=0;exitDy=0;jumpSize=11;endSize=10;" edge="1" parent="1" source="bZAxoYcyqO5xmqDFGb2h-37" target="N_R_tzAdEN0QScIxKXOi-21">
          <mxGeometry x="0.2279" y="-15" relative="1" as="geometry">
            <mxPoint x="755" y="495" as="sourcePoint" />
            <mxPoint x="680" y="350" as="targetPoint" />
            <Array as="points">
              <mxPoint x="830" y="510" />
            </Array>
            <mxPoint as="offset" />
          </mxGeometry>
        </mxCell>
        <mxCell id="bZAxoYcyqO5xmqDFGb2h-41" value="&amp;lt;&amp;lt;includes&amp;gt;&amp;gt;" style="edgeStyle=orthogonalEdgeStyle;rounded=0;orthogonalLoop=1;jettySize=auto;html=1;dashed=1;endArrow=block;endFill=0;endSize=10;" edge="1" parent="1" source="bZAxoYcyqO5xmqDFGb2h-37" target="N_R_tzAdEN0QScIxKXOi-27">
          <mxGeometry x="-0.0974" relative="1" as="geometry">
            <mxPoint x="839.9999999999818" y="560" as="sourcePoint" />
            <mxPoint x="690" y="520" as="targetPoint" />
            <Array as="points">
              <mxPoint x="990" y="710" />
              <mxPoint x="890" y="710" />
            </Array>
            <mxPoint as="offset" />
          </mxGeometry>
        </mxCell>
        <mxCell id="bZAxoYcyqO5xmqDFGb2h-45" value="&amp;lt;&amp;lt;extends&amp;gt;&amp;gt;" style="edgeStyle=orthogonalEdgeStyle;rounded=0;orthogonalLoop=1;jettySize=auto;html=1;entryX=0.5;entryY=1;entryDx=0;entryDy=0;dashed=1;endArrow=block;endFill=0;endSize=10;" edge="1" parent="1" source="bZAxoYcyqO5xmqDFGb2h-43" target="bZAxoYcyqO5xmqDFGb2h-27">
          <mxGeometry relative="1" as="geometry" />
        </mxCell>
        <mxCell id="bZAxoYcyqO5xmqDFGb2h-43" value="CalcularDistancia" style="ellipse;whiteSpace=wrap;html=1;fillColor=#FFFFFF;" vertex="1" parent="1">
          <mxGeometry x="420" y="237.5" width="100" height="65" as="geometry" />
        </mxCell>
        <mxCell id="bZAxoYcyqO5xmqDFGb2h-51" style="edgeStyle=orthogonalEdgeStyle;rounded=0;orthogonalLoop=1;jettySize=auto;html=1;entryX=0.5;entryY=1;entryDx=0;entryDy=0;dashed=1;endArrow=block;endFill=0;endSize=10;" edge="1" parent="1" source="bZAxoYcyqO5xmqDFGb2h-44" target="bZAxoYcyqO5xmqDFGb2h-43">
          <mxGeometry relative="1" as="geometry" />
        </mxCell>
        <mxCell id="bZAxoYcyqO5xmqDFGb2h-52" value="&amp;lt;&amp;lt;extends&amp;gt;&amp;gt;" style="edgeLabel;html=1;align=center;verticalAlign=middle;resizable=0;points=[];" vertex="1" connectable="0" parent="bZAxoYcyqO5xmqDFGb2h-51">
          <mxGeometry x="-0.2306" relative="1" as="geometry">
            <mxPoint as="offset" />
          </mxGeometry>
        </mxCell>
        <mxCell id="bZAxoYcyqO5xmqDFGb2h-44" value="CalcularTarifa" style="ellipse;whiteSpace=wrap;html=1;fillColor=#FFFFFF;" vertex="1" parent="1">
          <mxGeometry x="600" y="260" width="100" height="65" as="geometry" />
        </mxCell>
        <mxCell id="bZAxoYcyqO5xmqDFGb2h-50" style="edgeStyle=orthogonalEdgeStyle;rounded=0;orthogonalLoop=1;jettySize=auto;html=1;exitX=0.5;exitY=1;exitDx=0;exitDy=0;dashed=1;endArrow=block;endFill=0;" edge="1" parent="1" source="N_R_tzAdEN0QScIxKXOi-15" target="N_R_tzAdEN0QScIxKXOi-15">
          <mxGeometry relative="1" as="geometry" />
        </mxCell>
        <mxCell id="bZAxoYcyqO5xmqDFGb2h-57" value="Recibir Comentarios" style="ellipse;whiteSpace=wrap;html=1;fillColor=#FFFFFF;" vertex="1" parent="1">
          <mxGeometry x="500" y="-45" width="100" height="65" as="geometry" />
        </mxCell>
        <mxCell id="bZAxoYcyqO5xmqDFGb2h-58" value="Categorizar problema" style="ellipse;whiteSpace=wrap;html=1;fillColor=#FFFFFF;" vertex="1" parent="1">
          <mxGeometry x="610" y="27.5" width="100" height="65" as="geometry" />
        </mxCell>
        <mxCell id="bZAxoYcyqO5xmqDFGb2h-59" value="&amp;lt;&amp;lt;extends&amp;gt;&amp;gt;" style="edgeStyle=orthogonalEdgeStyle;rounded=0;orthogonalLoop=1;jettySize=auto;html=1;dashed=1;endArrow=block;endFill=0;" edge="1" parent="1" source="bZAxoYcyqO5xmqDFGb2h-57" target="bZAxoYcyqO5xmqDFGb2h-58">
          <mxGeometry x="-0.0577" relative="1" as="geometry">
            <mxPoint x="902.5" y="-40" as="sourcePoint" />
            <mxPoint x="719.8518515262144" y="10" as="targetPoint" />
            <Array as="points">
              <mxPoint x="570" y="2" />
            </Array>
            <mxPoint as="offset" />
          </mxGeometry>
        </mxCell>
        <mxCell id="bZAxoYcyqO5xmqDFGb2h-60" value="&amp;lt;&amp;lt;extends&amp;gt;&amp;gt;" style="edgeStyle=orthogonalEdgeStyle;rounded=0;orthogonalLoop=1;jettySize=auto;html=1;dashed=1;endArrow=block;endFill=0;endSize=11;" edge="1" parent="1" source="bZAxoYcyqO5xmqDFGb2h-27" target="bZAxoYcyqO5xmqDFGb2h-58">
          <mxGeometry x="-0.1155" relative="1" as="geometry">
            <mxPoint x="580.0588235294122" y="27.270025536018693" as="sourcePoint" />
            <mxPoint x="610" y="70" as="targetPoint" />
            <Array as="points">
              <mxPoint x="510" y="120" />
              <mxPoint x="640" y="120" />
            </Array>
            <mxPoint as="offset" />
          </mxGeometry>
        </mxCell>
        <mxCell id="bZAxoYcyqO5xmqDFGb2h-65" style="edgeStyle=orthogonalEdgeStyle;rounded=0;orthogonalLoop=1;jettySize=auto;html=1;dashed=1;endArrow=block;endFill=0;endSize=10;" edge="1" parent="1" source="bZAxoYcyqO5xmqDFGb2h-2" target="N_R_tzAdEN0QScIxKXOi-18">
          <mxGeometry relative="1" as="geometry">
            <mxPoint x="92.47000000000003" y="-150" as="sourcePoint" />
            <mxPoint x="-452.4711764705878" y="-109.44714049842514" as="targetPoint" />
            <Array as="points">
              <mxPoint x="-250" y="268" />
              <mxPoint x="-250" y="-90" />
            </Array>
          </mxGeometry>
        </mxCell>
        <mxCell id="bZAxoYcyqO5xmqDFGb2h-66" value="&amp;lt;&amp;lt;extends&amp;gt;&amp;gt;" style="edgeLabel;html=1;align=center;verticalAlign=middle;resizable=0;points=[];" vertex="1" connectable="0" parent="bZAxoYcyqO5xmqDFGb2h-65">
          <mxGeometry x="-0.1113" y="2" relative="1" as="geometry">
            <mxPoint x="8" y="-2" as="offset" />
          </mxGeometry>
        </mxCell>
        <mxCell id="bZAxoYcyqO5xmqDFGb2h-67" value="&amp;lt;&amp;lt;extends&amp;gt;&amp;gt;" style="edgeStyle=orthogonalEdgeStyle;rounded=0;orthogonalLoop=1;jettySize=auto;html=1;dashed=1;endArrow=block;endFill=0;endSize=10;" edge="1" parent="1" source="N_R_tzAdEN0QScIxKXOi-34" target="N_R_tzAdEN0QScIxKXOi-2">
          <mxGeometry relative="1" as="geometry">
            <mxPoint x="120" y="590" as="sourcePoint" />
            <mxPoint x="90" y="200" as="targetPoint" />
            <Array as="points">
              <mxPoint x="525" y="650" />
              <mxPoint x="70" y="650" />
            </Array>
          </mxGeometry>
        </mxCell>
        <mxCell id="bZAxoYcyqO5xmqDFGb2h-68" value="Validar Deuda" style="ellipse;whiteSpace=wrap;html=1;fillColor=#FFFFFF;" vertex="1" parent="1">
          <mxGeometry x="539" y="787.5" width="100" height="60" as="geometry" />
        </mxCell>
        <mxCell id="bZAxoYcyqO5xmqDFGb2h-69" value="Validar Porcentajes" style="ellipse;whiteSpace=wrap;html=1;" vertex="1" parent="1">
          <mxGeometry x="402.5" y="755" width="100" height="70" as="geometry" />
        </mxCell>
        <mxCell id="bZAxoYcyqO5xmqDFGb2h-71" value="Validar&lt;br&gt;bonificacion" style="ellipse;whiteSpace=wrap;html=1;" vertex="1" parent="1">
          <mxGeometry x="409" y="847.5" width="100" height="70" as="geometry" />
        </mxCell>
        <mxCell id="bZAxoYcyqO5xmqDFGb2h-73" value="&lt;b&gt;&lt;font style=&quot;font-size: 17px&quot;&gt;Actualizacion&lt;br&gt;&lt;br&gt;&lt;br&gt;&lt;br&gt;&lt;br&gt;&lt;br&gt;&lt;/font&gt;&lt;/b&gt;" style="rounded=0;whiteSpace=wrap;html=1;fillColor=#FFFFFF;" vertex="1" parent="1">
          <mxGeometry x="380" y="-540" width="210" height="160" as="geometry" />
        </mxCell>
        <mxCell id="bZAxoYcyqO5xmqDFGb2h-74" value="Actualizar Ubicacion" style="ellipse;whiteSpace=wrap;html=1;fillColor=#FFFFFF;" vertex="1" parent="1">
          <mxGeometry x="425" y="-480" width="120" height="80" as="geometry" />
        </mxCell>
        <mxCell id="bZAxoYcyqO5xmqDFGb2h-78" style="edgeStyle=orthogonalEdgeStyle;rounded=0;jumpSize=11;orthogonalLoop=1;jettySize=auto;html=1;fontSize=17;endArrow=open;endFill=0;endSize=10;targetPerimeterSpacing=0;" edge="1" parent="1" source="bZAxoYcyqO5xmqDFGb2h-73" target="bZAxoYcyqO5xmqDFGb2h-77">
          <mxGeometry relative="1" as="geometry">
            <Array as="points">
              <mxPoint x="410" y="-460" />
              <mxPoint x="410" y="-460" />
            </Array>
          </mxGeometry>
        </mxCell>
        <mxCell id="bZAxoYcyqO5xmqDFGb2h-77" value="Aumentar kilometros&lt;br&gt;movidos sin viaje" style="ellipse;whiteSpace=wrap;html=1;fillColor=#FFFFFF;" vertex="1" parent="1">
          <mxGeometry x="-80" y="-460" width="120" height="80" as="geometry" />
        </mxCell>
        <mxCell id="bZAxoYcyqO5xmqDFGb2h-79" value="Puntos extra por tráfico pesado" style="ellipse;whiteSpace=wrap;html=1;fillColor=#FFFFFF;" vertex="1" parent="1">
          <mxGeometry x="-90" y="-270" width="120" height="80" as="geometry" />
        </mxCell>
        <mxCell id="bZAxoYcyqO5xmqDFGb2h-81" style="edgeStyle=orthogonalEdgeStyle;rounded=0;orthogonalLoop=1;jettySize=auto;html=1;dashed=1;endArrow=block;endFill=0;endSize=10;" edge="1" parent="1" source="bZAxoYcyqO5xmqDFGb2h-79" target="bZAxoYcyqO5xmqDFGb2h-77">
          <mxGeometry relative="1" as="geometry">
            <mxPoint x="-30.001176470587833" y="-269.999268907074" as="sourcePoint" />
            <mxPoint x="9.998823529412167" y="-390.71611682995797" as="targetPoint" />
            <Array as="points">
              <mxPoint x="-30" y="-350" />
              <mxPoint x="-30" y="-350" />
            </Array>
          </mxGeometry>
        </mxCell>
        <mxCell id="bZAxoYcyqO5xmqDFGb2h-82" value="&amp;lt;&amp;lt;extends&amp;gt;&amp;gt;" style="edgeLabel;html=1;align=center;verticalAlign=middle;resizable=0;points=[];" vertex="1" connectable="0" parent="bZAxoYcyqO5xmqDFGb2h-81">
          <mxGeometry x="-0.5387" y="3" relative="1" as="geometry">
            <mxPoint x="3" y="-16" as="offset" />
          </mxGeometry>
        </mxCell>
        <mxCell id="bZAxoYcyqO5xmqDFGb2h-85" value="Validar Calificacion promedio" style="ellipse;whiteSpace=wrap;html=1;" vertex="1" parent="1">
          <mxGeometry x="525.5" y="890" width="100" height="70" as="geometry" />
        </mxCell>
        <mxCell id="bZAxoYcyqO5xmqDFGb2h-87" value="Actualizar&lt;br&gt;Calificacion promedio&lt;br&gt;" style="ellipse;whiteSpace=wrap;html=1;fillColor=#FFFFFF;" vertex="1" parent="1">
          <mxGeometry x="402.5" y="370" width="123" height="90" as="geometry" />
        </mxCell>
        <mxCell id="bZAxoYcyqO5xmqDFGb2h-89" value="Dar Dinero" style="ellipse;whiteSpace=wrap;html=1;fillColor=#FFFFFF;" vertex="1" parent="1">
          <mxGeometry x="421" y="512.5" width="88" height="55" as="geometry" />
        </mxCell>
        <mxCell id="bZAxoYcyqO5xmqDFGb2h-90" value="Validar Tarjeta" style="ellipse;whiteSpace=wrap;html=1;fillColor=#FFFFFF;" vertex="1" parent="1">
          <mxGeometry x="545" y="1300" width="88" height="55" as="geometry" />
        </mxCell>
        <mxCell id="bZAxoYcyqO5xmqDFGb2h-94" value="&lt;font style=&quot;font-size: 12px&quot;&gt;&amp;lt;&amp;lt;extends&amp;gt;&amp;gt;&lt;/font&gt;" style="edgeStyle=orthogonalEdgeStyle;rounded=0;jumpSize=11;orthogonalLoop=1;jettySize=auto;html=1;fontSize=17;endArrow=block;endFill=0;endSize=10;targetPerimeterSpacing=0;dashed=1;" edge="1" parent="1" source="bZAxoYcyqO5xmqDFGb2h-91" target="bZAxoYcyqO5xmqDFGb2h-90">
          <mxGeometry x="-0.1728" relative="1" as="geometry">
            <Array as="points">
              <mxPoint x="525" y="1320" />
            </Array>
            <mxPoint as="offset" />
          </mxGeometry>
        </mxCell>
        <mxCell id="bZAxoYcyqO5xmqDFGb2h-91" value="Hacer transferencia" style="ellipse;whiteSpace=wrap;html=1;fillColor=#FFFFFF;" vertex="1" parent="1">
          <mxGeometry x="481" y="1210" width="88" height="55" as="geometry" />
        </mxCell>
        <mxCell id="bZAxoYcyqO5xmqDFGb2h-97" value="Compartir Viaje" style="ellipse;whiteSpace=wrap;html=1;fillColor=#FFFFFF;" vertex="1" parent="1">
          <mxGeometry x="1070" y="1110" width="110" height="80" as="geometry" />
        </mxCell>
        <mxCell id="bZAxoYcyqO5xmqDFGb2h-98" value="&amp;lt;&amp;lt;includes&amp;gt;&amp;gt;" style="edgeStyle=orthogonalEdgeStyle;rounded=0;orthogonalLoop=1;jettySize=auto;html=1;dashed=1;endArrow=block;endFill=0;endSize=10;" edge="1" parent="1" source="N_R_tzAdEN0QScIxKXOi-27" target="bZAxoYcyqO5xmqDFGb2h-97">
          <mxGeometry x="-0.0974" relative="1" as="geometry">
            <mxPoint x="1000" y="579.8343678185574" as="sourcePoint" />
            <mxPoint x="900" y="1120" as="targetPoint" />
            <Array as="points">
              <mxPoint x="1000" y="1150" />
            </Array>
            <mxPoint as="offset" />
          </mxGeometry>
        </mxCell>
      </root>
    </mxGraphModel>
  </diagram>
</mxfile>
